<?xml version="1.0" encoding="UTF-8" standalone="no"?>
<svg width="26px" height="25px" viewBox="0 0 26 25" version="1.1" xmlns="http://www.w3.org/2000/svg" xmlns:xlink="http://www.w3.org/1999/xlink">
    <!-- Generator: Sketch 39.1 (31720) - http://www.bohemiancoding.com/sketch -->
    <title>ic_blog_collect_actived</title>
    <desc>Created with Sketch.</desc>
    <defs></defs>
    <g id="详情" stroke="none" stroke-width="1" fill="none" fill-rule="evenodd">
        <g id="osc博客详情页面参数" transform="translate(-592.000000, -626.000000)" fill="#4EAA4C">
            <path d="M609.263068,634.651184 L605.81325,627.695673 L605.096564,626.250693 L604.379872,627.69567 L600.930019,634.651181 L601.53222,634.214884 L593.818197,635.330305 L592.207464,635.563212 L593.375697,636.696323 L598.957617,642.110426 L598.72623,641.400286 L597.408514,649.045195 L597.133594,650.640183 L598.567718,649.889945 L605.467354,646.28052 L604.725696,646.28052 L611.625331,649.889945 L613.059447,650.640178 L612.784536,649.045198 L611.466856,641.400289 L611.235468,642.110426 L616.817388,636.696323 L617.985622,635.563212 L616.374888,635.330305 L608.660865,634.214884 L609.263068,634.651184 Z M614.53446,636.681629 L610.121493,640.961922 L609.81838,641.255922 L609.890106,641.672059 L610.936479,647.723874 L605.467354,644.862795 L605.096525,644.668802 L604.725696,644.862795 L599.260868,647.718013 L600.302979,641.672062 L600.374707,641.255924 L600.071592,640.961922 L595.653396,636.681582 L601.761193,635.798416 L602.176804,635.73832 L602.363395,635.362119 L605.090775,629.839927 L607.829689,635.362116 L608.016279,635.73832 L608.431892,635.798416 L614.53446,636.681629 Z" id="ic_blog_collect_actived"></path>
        </g>
    </g>
</svg>