<?xml version="1.0" encoding="UTF-8"?>
<svg width="34px" height="39px" viewBox="0 0 34 39" version="1.1" xmlns="http://www.w3.org/2000/svg" xmlns:xlink="http://www.w3.org/1999/xlink">
    <!-- Generator: Sketch 41.2 (35397) - http://www.bohemiancoding.com/sketch -->
    <title>ic_question_a_actived</title>
    <desc>Created with Sketch.</desc>
    <defs></defs>
    <g id="问答" stroke="none" stroke-width="1" fill="none" fill-rule="evenodd">
        <g id="我要提问" transform="translate(-269.000000, -387.000000)">
            <g id="content" transform="translate(121.000000, 187.000000)">
                <g id="Group-4" transform="translate(68.000000, 74.000000)">
                    <g id="Group-3" transform="translate(0.000000, 105.000000)">
                        <g id="Group-2" transform="translate(57.000000, 0.000000)">
                            <g id="ic_question_a_actived" transform="translate(23.000000, 21.000000)">
                                <g id="Group">
                                    <path d="M17.0189099,0 C21.6984798,0 25.9746385,1.87057675 29.0405636,5.04242426 C34.7690026,10.8168133 35.6565072,20.0883676 31.0576196,26.8387097 C29.2019281,29.6039101 26.5394142,31.7184751 23.4734891,33.0197458 L18.067779,38.5501466 C17.5030034,39.1194526 16.5348165,39.1194526 15.9700408,38.5501466 L15.9700408,38.5501466 L15.9700408,38.4688172 L10.5643307,33.0197458 C7.41772338,31.7184751 4.83589174,29.6039101 2.98020022,26.8387097 C-1.61868743,20.0883675 -0.811865048,10.8168133 4.9972562,5.04242426 C8.06318131,1.87057675 12.33934,0 17.0189099,0 L17.0189099,0 Z" id="Shape" fill="#ABABAB"></path>
                                    <path d="M26.9428254,7.15698923 L26.9428254,7.15698923 C24.4416759,4.55444772 20.8916574,3.00918865 17.0189099,3.00918865 C13.1461624,3.00918865 9.59614385,4.63577713 7.09499444,7.15698923 C2.33474229,11.9554252 1.6892844,19.600391 5.40066741,25.1307918 C7.01431221,27.4893451 9.19273268,29.2785924 11.8552466,30.3358749 C12.0972933,30.4172043 12.2586578,30.4985337 12.4200222,30.742522 L17.0189099,35.4596285 L21.6177976,30.742522 L21.6177976,30.742522 C21.779162,30.5798631 21.9405265,30.4985337 22.1825732,30.4172043 C24.8450871,29.3599218 27.1041898,27.5706745 28.6371524,25.2121212 C32.4292177,19.600391 31.7030775,11.9554252 26.9428254,7.15698923 L26.9428254,7.15698923 Z" id="Path" fill="#FFFFFF"></path>
                                    <path d="M15.5666296,27.8146628 C15.5666296,28.6680858 16.2529603,29.3599218 17.0995921,29.3599218 C17.946224,29.3599218 18.6325547,28.6680858 18.6325547,27.8146628 C18.6325547,26.9612397 17.946224,26.2694037 17.0995921,26.2694037 C16.2529603,26.2694037 15.5666296,26.9612397 15.5666296,27.8146628 L15.5666296,27.8146628 Z" id="Shape" fill="#ABABAB"></path>
                                    <path d="M13.3882091,13.256696 L13.3882091,13.256696 C13.3882091,12.1994135 13.7916203,11.3861192 14.4370782,10.7354839 C14.7598072,10.3288367 15.2439006,10.0848485 15.6473118,9.92218965 C16.1314053,9.75953079 16.6154987,9.59687197 17.0995921,9.59687197 L17.0995921,9.59687197 C17.9870968,9.59687197 18.8746014,9.92218965 19.6007415,10.6541545 C19.9234705,10.9794721 20.084835,11.3047899 20.3268817,11.6301075 C20.6496106,12.2807429 20.8109751,13.0127077 20.7302929,13.7446726 C20.6496107,14.395308 20.3268817,15.1272728 19.762106,15.6152493 C19.5200593,15.8592376 19.1973304,16.1032258 18.8746014,16.2658847 C18.067779,16.6725318 17.2609566,17.1605084 16.6154987,18.055132 L16.6154987,18.055132 C15.9700408,18.9497557 15.4859473,20.169697 15.4859473,22.0402737 C15.4859473,22.9348974 16.1314053,23.5855328 17.0189099,23.5855328 C17.9064145,23.5855328 18.6325547,22.853568 18.6325547,21.9589443 C18.6325547,20.9016618 18.7939192,20.2510264 19.1166481,19.8443793 C19.4393771,19.4377321 19.9234705,19.1937439 20.407564,18.9497556 C20.9723396,18.6244379 21.5371153,18.2177908 21.9405265,17.7298142 C22.9893956,16.6725318 23.5541713,15.371261 23.796218,13.9886608 C23.9575825,12.68739 23.7155358,11.2234604 23.0700779,9.92218961 C22.7473489,9.35288366 22.3439377,8.78357767 21.8598443,8.29560113 C20.4882462,6.91300093 18.7939192,6.34369498 17.1802744,6.34369498 L17.1802744,6.34369498 C16.2120875,6.34369498 15.3245829,6.50635384 14.5177605,6.91300093 C13.7109381,7.23831861 12.9041157,7.8076246 12.2586578,8.37693055 C11.1291064,9.59687189 10.322284,11.2234604 10.322284,13.1753665 C10.322284,14.0699902 10.967742,14.7206256 11.8552466,14.7206256 C12.7427512,14.7206256 13.3882091,14.0699902 13.3882091,13.256696 L13.3882091,13.256696 Z" id="Shape" fill="#ABABAB"></path>
                                </g>
                            </g>
                        </g>
                    </g>
                </g>
            </g>
        </g>
    </g>
</svg>