<?xml version="1.0" encoding="UTF-8"?>
<svg width="40px" height="35px" viewBox="0 0 40 35" version="1.1" xmlns="http://www.w3.org/2000/svg" xmlns:xlink="http://www.w3.org/1999/xlink">
    <!-- Generator: Sketch 41.2 (35397) - http://www.bohemiancoding.com/sketch -->
    <title>ic_question_w</title>
    <desc>Created with Sketch.</desc>
    <defs></defs>
    <g id="问答" stroke="none" stroke-width="1" fill="none" fill-rule="evenodd">
        <g id="我要提问" transform="translate(-574.000000, -388.000000)">
            <g id="content" transform="translate(121.000000, 187.000000)">
                <g id="Group-4" transform="translate(68.000000, 74.000000)">
                    <g id="Group-3" transform="translate(0.000000, 105.000000)">
                        <g id="Group-2-Copy-3" transform="translate(366.000000, 0.000000)">
                            <g id="ic_question_w" transform="translate(19.000000, 22.000000)">
                                <g id="Group">
                                    <path d="M33.7282513,33.9774821 L6.39375916,33.9774821 C3.96674346,33.9774821 1.98102618,31.9973926 1.98102618,29.5772554 L1.98102618,12.9541348 C1.98102618,10.5339976 3.96674346,8.55390811 6.39375916,8.55390811 L33.7282513,8.55390811 C36.155267,8.55390811 38.1409843,10.5339976 38.1409843,12.9541348 L38.1409843,29.5772554 C38.1410262,31.9973926 36.155267,33.9774821 33.7282513,33.9774821 Z" id="Shape" fill="#FFFFFF"></path>
                                    <path d="M34.4073298,6.42738663 L28.8735916,6.42738663 C28.9588612,6.13136975 29.002185,5.82491377 29.0023037,5.51692721 L29.0023037,3.37374105 C29.0023037,1.52463007 27.4735497,0.0203400955 25.5943874,0.0203400955 L14.4051099,0.0203400955 C12.5259476,0.0203400955 10.9971937,1.52467184 10.9971937,3.37374105 L10.9971937,5.51692721 C10.9973091,5.824914 11.040633,6.13137044 11.1259058,6.42738663 L5.59220942,6.42738663 C2.50940314,6.42738663 0.00138219895,8.88807876 0.00138219895,11.9127804 L0.00138219895,29.5013663 C0.00138219895,32.5259845 2.50944503,34.9867601 5.59220942,34.9867601 L34.4074136,34.9867601 C37.4902199,34.9867601 39.9982408,32.526068 39.9982408,29.5013663 L39.9982408,11.9127804 C39.9981571,8.88807876 37.4901361,6.42738663 34.4073298,6.42738663 L34.4073298,6.42738663 Z M13.4470785,5.51692721 L13.4470785,3.37374105 C13.4470785,2.88019093 13.8857801,2.46328162 14.4051099,2.46328162 L25.5943455,2.46328162 C26.1136754,2.46328162 26.552377,2.8802327 26.552377,3.37374105 L26.552377,5.51692721 C26.552377,6.01047733 26.1136754,6.42738663 25.5943455,6.42738663 L14.4051099,6.42738663 C13.885822,6.42738663 13.4470785,6.01043556 13.4470785,5.51692721 Z M5.59212565,8.87032816 L34.4073298,8.87032816 C36.139267,8.87032816 37.5483141,10.2352029 37.5483141,11.9127804 L37.5483141,14.2222792 L2.45118325,14.2222792 L2.45118325,11.9127804 C2.45118325,10.2351611 3.86023037,8.87032816 5.59212565,8.87032816 L5.59212565,8.87032816 Z M24.0411309,16.6651372 C23.4972984,18.4500537 21.7936335,19.7561635 19.781445,19.7561635 C17.7692147,19.7561635 16.0655497,18.4500537 15.5217173,16.6651372 L24.0411309,16.6651372 L24.0411309,16.6651372 Z M34.4073298,32.5437768 L5.59212565,32.5437768 C3.86018848,32.5437768 2.45114136,31.1789021 2.45114136,29.5013246 L2.45114136,16.6651372 L13.0033089,16.6651372 C13.5914136,19.8090394 16.4069529,22.199105 19.781445,22.199105 C23.1559372,22.199105 25.9714764,19.8090394 26.5595812,16.6651372 L37.5483141,16.6651372 L37.5483141,29.5013246 C37.5483141,31.1789021 36.1392251,32.5437768 34.4073298,32.5437768 L34.4073298,32.5437768 Z" id="Shape" fill="#ABABAB"></path>
                                </g>
                            </g>
                        </g>
                    </g>
                </g>
            </g>
        </g>
    </g>
</svg>