<?xml version="1.0" encoding="UTF-8"?>
<svg width="44px" height="42px" viewBox="0 0 44 42" version="1.1" xmlns="http://www.w3.org/2000/svg" xmlns:xlink="http://www.w3.org/1999/xlink">
    <!-- Generator: Sketch 41.2 (35397) - http://www.bohemiancoding.com/sketch -->
    <title>ic_question_s</title>
    <desc>Created with Sketch.</desc>
    <defs></defs>
    <g id="问答" stroke="none" stroke-width="1" fill="none" fill-rule="evenodd">
        <g id="我要提问" transform="translate(-368.000000, -385.000000)">
            <g id="content" transform="translate(121.000000, 187.000000)">
                <g id="Group-4" transform="translate(68.000000, 74.000000)">
                    <g id="Group-3" transform="translate(0.000000, 105.000000)">
                        <g id="Group-2-Copy" transform="translate(160.000000, 0.000000)">
                            <g id="ic_question_s" transform="translate(19.000000, 19.000000)">
                                <path d="M8.29029317,36.0577109 C11.521986,39.702456 16.2423709,42 21.5,42 C24.9436565,42 28.1568339,41.014348 30.8721857,39.3100802 C29.9925906,38.8182168 29.2453527,38.118358 28.6972257,37.2771799 C26.5674331,38.4655738 24.1129025,39.1428571 21.5,39.1428571 C17.3367164,39.1428571 13.5755049,37.4233817 10.8893469,34.656631 C10.1520722,35.3064079 9.26670649,35.7924269 8.29029317,36.0577109 Z M3.86886641,23.8319209 C4.12571478,15.4503333 10.2432203,8.54199069 18.2663937,7.05728864 C18.1983536,7.42466654 18.1627907,7.80342311 18.1627907,8.19047619 C18.1627907,8.79855029 18.2505654,9.38614732 18.4141498,9.94131609 C12.0912858,11.2828344 7.26306658,16.6628378 6.76361995,23.2504901 C6.70032379,23.2486774 6.63680187,23.2477648 6.57306656,23.2477648 C5.60848748,23.2477648 4.69278157,23.4567728 3.86886641,23.8319209 Z M38.3519435,29.6027929 C38.8638448,27.9527841 39.1395349,26.1990263 39.1395349,24.3809524 C39.1395349,17.9234484 35.6615521,12.2773273 30.4745684,9.2095164 C30.311377,10.1936898 29.9157647,11.0994787 29.3459478,11.8687345 C33.5105063,14.4796095 36.2790698,19.1073401 36.2790698,24.3809524 C36.2790698,25.6370142 36.1220118,26.8564357 35.8264414,28.0206929 C36.7955411,28.3378074 37.6593494,28.8871229 38.3519435,29.6027929 Z" id="Combined-Shape" fill="#ABABAB"></path>
                                <path d="M20.3721399,15.0032539 C24.2658796,15.0032539 27.4223792,11.8504203 27.4223792,7.96120302 C27.4223792,4.07198571 24.2658796,0.91915214 20.3721399,0.91915214 C16.4784003,0.91915214 13.3219006,4.07198571 13.3219006,7.96120302 C13.3219006,11.8504203 16.4784003,15.0032539 20.3721399,15.0032539 Z" id="Oval-4" fill="#ABABAB"></path>
                                <path d="M36.0502393,39.0841018 C39.943979,39.0841018 43.1004786,35.9312682 43.1004786,32.0420509 C43.1004786,28.1528336 39.943979,25 36.0502393,25 C32.1564997,25 29,28.1528336 29,32.0420509 C29,35.9312682 32.1564997,39.0841018 36.0502393,39.0841018 Z" id="Oval-4-Copy" fill="#ABABAB"></path>
                                <path d="M7.05023931,39.0841018 C10.943979,39.0841018 14.1004786,35.9312682 14.1004786,32.0420509 C14.1004786,28.1528336 10.943979,25 7.05023931,25 C3.15649966,25 0,28.1528336 0,32.0420509 C0,35.9312682 3.15649966,39.0841018 7.05023931,39.0841018 Z" id="Oval-4-Copy-2" fill="#ABABAB"></path>
                                <path d="M6.94453385,35.879905 C4.76602796,35.879905 3,34.1159282 3,31.9399525 C3,29.7639768 4.76602796,28 6.94453385,28 C9.12303974,28 10.8890677,29.7639768 10.8890677,31.9399525 C10.8890677,34.1159282 9.12303974,35.879905 6.94453385,35.879905 Z" id="Path" fill="#FFFFFF"></path>
                                <path d="M35.9445339,35.8810665 C33.766028,35.8810665 32,34.1170896 32,31.941114 C32,29.7651383 33.766028,28.0011614 35.9445339,28.0011614 C38.1230397,28.0011614 39.8890677,29.7651383 39.8890677,31.941114 C39.8890677,34.1170896 38.1230397,35.8810665 35.9445339,35.8810665 Z" id="Path" fill="#FFFFFF"></path>
                                <path d="M20.3721399,11.9927122 C18.1430099,11.9927122 16.335943,10.187744 16.335943,7.96120302 C16.335943,5.73466199 18.1430099,3.92969386 20.3721399,3.92969386 C22.60127,3.92969386 24.4083369,5.73466199 24.4083369,7.96120302 C24.4083369,10.187744 22.60127,11.9927122 20.3721399,11.9927122 Z" id="Path" fill="#FFFFFF"></path>
                            </g>
                        </g>
                    </g>
                </g>
            </g>
        </g>
    </g>
</svg>