<?xml version="1.0" encoding="UTF-8"?>
<svg width="35px" height="33px" viewBox="0 0 35 33" version="1.1" xmlns="http://www.w3.org/2000/svg" xmlns:xlink="http://www.w3.org/1999/xlink">
    <!-- Generator: Sketch 41.2 (35397) - http://www.bohemiancoding.com/sketch -->
    <title>ic_question_t</title>
    <desc>Created with Sketch.</desc>
    <defs></defs>
    <g id="问答" stroke="none" stroke-width="1" fill="none" fill-rule="evenodd">
        <g id="我要提问" transform="translate(-475.000000, -389.000000)">
            <g id="content" transform="translate(121.000000, 187.000000)">
                <g id="Group-4" transform="translate(68.000000, 74.000000)">
                    <g id="Group-3" transform="translate(0.000000, 105.000000)">
                        <g id="Group-2-Copy-2" transform="translate(263.000000, 0.000000)">
                            <g id="ic_question_t" transform="translate(23.000000, 23.000000)">
                                <g id="Group">
                                    <path d="M32.0643735,0.000286155242 L2.93555627,0.000286155242 C1.33462882,0.000286155242 0.0322008235,1.31316221 0.0322008235,2.92696457 L0.0322008235,6.55744969 C0.0322008235,8.17125205 1.33462885,9.48416214 2.93555627,9.48416214 L32.0643735,9.48416214 C33.665301,9.48416214 34.9677641,8.17125205 34.9677641,6.55744969 L34.9677641,2.92693054 C34.9677641,1.31316221 33.6653009,0.000286155242 32.0643735,0.000286155242 Z" id="Shape" fill="#ABABAB"></path>
                                    <path d="M32.3587954,6.51840903 C32.3587954,6.90363111 32.086197,7.21707167 31.7511352,7.21707167 L3.24879531,7.21707167 C2.91373357,7.21707167 2.64116951,6.90366444 2.64116951,6.51840903 L2.64116951,2.96597194 C2.64116951,2.58074986 2.91373357,2.26734263 3.24879531,2.26734263 L31.7511352,2.26734263 C32.086197,2.26734263 32.3587954,2.58074986 32.3587954,2.96597194 L32.3587954,6.51840903 Z" id="Path" fill="#FFFFFF"></path>
                                    <path d="M32.0643735,23.5158379 L2.93555627,23.5158379 C1.33462882,23.5158379 0.0322008235,24.8287479 0.0322008235,26.4425503 L0.0322008235,30.0730014 C0.0322008235,31.6867697 1.33462885,32.9997138 2.93555627,32.9997138 L32.0643735,32.9997138 C33.665301,32.9997138 34.9677641,31.6868037 34.9677641,30.0730014 L34.9677641,26.4425163 C34.9677641,24.8287479 33.6653009,23.5158379 32.0643735,23.5158379 Z" id="Shape" fill="#ABABAB"></path>
                                    <path d="M32.3587954,30.0339607 C32.3587954,30.4192161 32.086197,30.7326233 31.7511352,30.7326233 L3.24879531,30.7326233 C2.91373357,30.7326233 2.64116951,30.4192494 2.64116951,30.0339607 L2.64116951,26.4815569 C2.64116951,26.0963016 2.91373357,25.7828943 3.24879531,25.7828943 L31.7511352,25.7828943 C32.086197,25.7828943 32.3587954,26.0962682 32.3587954,26.4815569 L32.3587954,30.0339607 Z" id="Path" fill="#FFFFFF"></path>
                                    <path d="M3.07151552,15.2957421 L32.1440108,15.2957421 C32.7742621,15.2957421 33.2851979,14.7479928 33.2851979,14.0723311 C33.2851979,13.3966694 32.7742621,12.8489201 32.1440108,12.8489201 L3.07151552,12.84892 C2.44126424,12.84892 1.93032848,13.3966694 1.93032848,14.0723311 C1.93032848,14.7479927 2.44122914,15.2957421 3.07151552,15.2957421 Z" id="Shape" fill="#ABABAB"></path>
                                    <path d="M3.07151552,20.1689179 L32.1440108,20.1689179 C32.7742621,20.1689179 33.2851979,19.6211685 33.2851979,18.9455069 C33.2851979,18.2698452 32.7742621,17.7220958 32.1440108,17.7220958 L3.07151552,17.7220958 C2.44126424,17.7220958 1.93032848,18.2698452 1.93032848,18.9455069 C1.93032848,19.6211685 2.44122914,20.1689179 3.07151552,20.1689179 Z" id="Shape" fill="#ABABAB"></path>
                                </g>
                            </g>
                        </g>
                    </g>
                </g>
            </g>
        </g>
    </g>
</svg>