<?xml version="1.0" encoding="UTF-8"?>
<svg width="37px" height="35px" viewBox="0 0 37 35" version="1.1" xmlns="http://www.w3.org/2000/svg" xmlns:xlink="http://www.w3.org/1999/xlink">
    <!-- Generator: Sketch 41.2 (35397) - http://www.bohemiancoding.com/sketch -->
    <title>ic_question_b</title>
    <desc>Created with Sketch.</desc>
    <defs></defs>
    <g id="问答" stroke="none" stroke-width="1" fill="none" fill-rule="evenodd">
        <g id="我要提问" transform="translate(-680.000000, -388.000000)">
            <g id="content" transform="translate(121.000000, 187.000000)">
                <g id="Group-4" transform="translate(68.000000, 74.000000)">
                    <g id="Group-3" transform="translate(0.000000, 105.000000)">
                        <g id="Group-2-Copy-4" transform="translate(469.000000, 0.000000)">
                            <g id="ic_question_b" transform="translate(21.698549, 22.714844)">
                                <path d="M32.3336391,27.2791294 C31.5986027,28.0067917 30.5870498,28.45625 29.4706355,28.45625 L8.13226628,28.45625 C6.72052863,28.45625 5.4767887,27.7359955 4.74753145,26.6450734 C5.58747942,27.1497466 6.57095367,27.4399554 7.62220982,27.4399554 C9.11910277,27.4399554 10.4785668,26.8515523 11.481928,25.89342 L27.1372684,25.89342 C28.1406296,26.8515523 29.5000937,27.4399554 30.9969866,27.4399554 C31.4576796,27.4399554 31.9053554,27.3842218 32.3336391,27.2791294 Z M33.5377232,16.8701937 L33.5377232,4.06196593 C33.5377232,1.8233548 31.716826,0 29.4706355,0 L8.13226628,0 C5.88657649,0 4.06517857,1.81860409 4.06517857,4.06196593 L4.06517857,17.5383614 C4.78339896,16.9452114 5.65232056,16.5280415 6.60591518,16.3528801 L6.60591518,3.61995901 C6.60591518,3.03726169 7.08098552,2.56282997 7.66838868,2.56282997 L29.9345131,2.56282997 C30.5199104,2.56282997 30.9969866,3.03969033 30.9969866,3.61995901 L30.9969866,16.2607143 C31.911879,16.2607143 32.7754338,16.4805172 33.5377238,16.8701962 Z" id="Combined-Shape" fill="#ABABAB"></path>
                                <path d="M28.6489649,19.5255608 L27.9481027,18.8014509 C26.6024015,15.5231384 22.2348753,12.0277836 18.2690395,12.0277836 C13.5758544,12.0277836 9.70434347,15.2893272 9.05664619,19.529753 C9.02310847,19.5276569 8.98747464,19.5255608 8.95184081,19.5255608 C5.13063647,19.5255608 2.03258929,22.4349583 2.03258929,26.0213986 C2.03258929,29.6120311 5.13063647,32.5214286 8.95184081,32.5214286 C9.13210607,32.5214286 9.30817912,32.5088519 9.48425216,32.4962753 L28.6489649,32.5214286 C32.4701692,32.5214286 35.5703125,29.6120311 35.5703125,26.0213986 C35.5703125,22.4349583 32.4701692,19.5255608 28.6489649,19.5255608 Z" id="Path" stroke="#ABABAB" stroke-width="2.5" fill="#FFFFFF"></path>
                                <path d="M29.7443485,18.4653448 L29.0434863,17.7412349 L27.9481027,18.8014509 L29.3583549,18.2225622 C29.3309754,18.1558622 29.3026811,18.0892631 29.2734899,18.0227797 C29.2615875,17.995672 29.2495361,17.9685835 29.2373367,17.9415153 C27.4648821,14.0087588 22.5701256,10.5033416 18.2690395,10.5033416 C13.3294555,10.5033416 9.08238864,13.6602009 7.8178742,18.0729864 C3.70637877,18.5981653 0.508147321,21.938962 0.508147321,26.0213986 C0.508147321,30.4757028 4.30895631,34.0458705 8.95184081,34.0458705 C9.13747817,34.0458705 9.27439543,34.0392116 9.53715781,34.020788 L28.6469641,34.0458692 C33.292117,34.0458705 37.0947545,30.4754795 37.0947545,26.0213986 C37.0947545,21.7868905 33.6518156,18.34998 29.3191844,18.026078 C29.1082529,18.0112785 28.9417386,18.0043041 28.7740879,18.0019841 C28.7324496,18.0014079 28.6907412,18.0011189 28.6489649,18.0011189 L28.6489649,19.5255608 L29.7443485,18.4653448 Z M26.9106406,19.5638007 L28.3096182,21.0091827 L28.9772153,21.0091827 C32.0774244,21.0091827 34.5540179,23.3334819 34.5540179,26.1462917 C34.5540179,28.9629308 32.0779925,31.2877326 28.9772153,31.2877326 L9.17574636,31.2617422 L9.06144648,31.2657441 C8.82559666,31.2825905 8.72903908,31.2877326 8.62352047,31.2877326 C5.52329321,31.2877326 3.04888393,28.9634758 3.04888393,26.1462917 C3.04888393,23.332937 5.52386096,21.0091827 8.62352047,21.0091827 C8.61252546,21.0091827 10.0714773,21.1003169 10.0714773,21.1003169 L10.2890157,19.6761095 C10.8455272,16.0326702 14.2141293,13.2614795 18.2512925,13.2614795 C21.469864,13.2614795 25.5472116,16.2423008 26.7957305,19.283864 L26.9106406,19.5638007 Z" id="Path" fill="#ABABAB"></path>
                                <polygon id="Path" fill="#ABABAB" points="22.4665134 4.78584375 24.0381384 10.2844687 25.6097634 8.71284375 27.1834509 10.2844687 27.9692634 10.2844687 27.9692634 9.49865625 26.3976384 7.92703125 27.9692634 6.35540625"></polygon>
                            </g>
                        </g>
                    </g>
                </g>
            </g>
        </g>
    </g>
</svg>