<?xml version="1.0" encoding="UTF-8"?>
<svg width="20" height="20" viewBox="0 0 20 20" id="blog_nav_icon_ic_type_server"  version="1.1" xmlns="http://www.w3.org/2000/svg" xmlns:xlink="http://www.w3.org/1999/xlink"><g fill="none" fill-rule="evenodd"><path d="M0 0h20v20H0z"></path><path d="M4.167 0C3.522 0 3 .587 3 1.313v17.375C3 19.413 3.522 20 4.167 20h11.666c.645 0 1.167-.587 1.167-1.313V1.313C17 .588 16.478 0 15.833 0H4.167zM4 18V7h12v11H4zm6.707-2.707a1 1 0 1 1-1.414 1.414 1 1 0 0 1 1.414-1.414zM16 5H4V2h12v3z" fill="#9D9D9D"></path></g></svg>
