<?xml version="1.0" encoding="UTF-8"?>
<svg width="20" height="20" viewBox="0 0 20 20" id="blog_nav_icon_ic_type_multimedia" version="1.1" xmlns="http://www.w3.org/2000/svg" xmlns:xlink="http://www.w3.org/1999/xlink"><g fill="none" fill-rule="evenodd"><path d="M0 0h20v20H0z"></path><path d="M15.09 3H4.91A1.91 1.91 0 0 0 3 4.91v10.18A1.91 1.91 0 0 0 4.91 17h10.18A1.91 1.91 0 0 0 17 15.09V4.91A1.91 1.91 0 0 0 15.09 3zm.637 12.09a.636.636 0 0 1-.636.637H7.08l5.464-5.463 3.182 3.181v1.646zm0-3.444l-3.182-3.182-7.263 7.263h-.373a.636.636 0 0 1-.636-.636V4.909c0-.351.285-.636.636-.636h10.182c.352 0 .636.285.636.636v6.737zm-8.272-6.1a1.91 1.91 0 1 0 0 3.818 1.91 1.91 0 0 0 0-3.819zm0 2.545a.636.636 0 1 1 0-1.273.636.636 0 0 1 0 1.273z" fill="#9D9D9D"></path></g></svg>