<?xml version="1.0" encoding="UTF-8"?>
<svg width="20" height="20" viewBox="0 0 20 20" id="blog_nav_icon_ic_type_hardware" version="1.1" xmlns="http://www.w3.org/2000/svg" xmlns:xlink="http://www.w3.org/1999/xlink"><g fill="none" fill-rule="evenodd"><path d="M0 0h20v20H0z"></path><path d="M12.235 7.642c0-.578.298-.867.895-.867.59 0 .884.289.884.867 0 .578-.295.867-.884.867-.597 0-.895-.29-.895-.867zm-1.189 0c0 1.36.695 2.041 2.084 2.041 1.382 0 2.073-.68 2.073-2.041 0-1.355-.69-2.032-2.073-2.032-1.39 0-2.084.677-2.084 2.032zm4.909 2.274c0 .348-.178.522-.533.522h-4.594c-.356 0-.533-.174-.533-.522V5.367c0-.347.177-.521.533-.521h4.594c.355 0 .533.174.533.521v4.55zm-1.703 1.333c.507 0 .761.249.761.746s-.254.745-.76.745c-.508 0-.762-.248-.762-.745s.254-.746.761-.746zm-2.254 0c.507 0 .76.249.76.746s-.253.745-.76.745c-.508 0-.761-.248-.761-.745s.253-.746.76-.746zm3.443 3.738c0 .192-.101.289-.304.289H7.47c-.203 0-.305-.097-.305-.29v-1.071c0-.193.102-.29.305-.29h7.667c.203 0 .304.097.304.29v1.072zM6.623 5.06c0-.193.098-.289.295-.289h1.094c.196 0 .295.096.295.289v6.357c0 .192-.099.289-.295.289H6.918c-.197 0-.295-.097-.295-.29V5.06zm-1.446 6.357c0 .192-.098.289-.295.289H3.788c-.203 0-.304-.097-.304-.29V5.06c0-.193.101-.289.304-.289h1.094c.197 0 .295.096.295.289v6.357zm-1.607 3.03c0-.498.253-.747.76-.747.508 0 .762.249.762.746s-.254.746-.761.746c-.508 0-.761-.249-.761-.746zm14.126-6.19c.203 0 .304-.096.304-.289V6.775c0-.193-.101-.289-.304-.289h-.447V4.463c0-.975-.495-1.463-1.484-1.463H3.484C2.494 3 2 3.488 2 4.463v11.074C2 16.512 2.495 17 3.484 17h12.28c.99 0 1.485-.488 1.485-1.463v-.261h.447c.203 0 .304-.097.304-.29V12.63c0-.2-.101-.299-.304-.299h-.447v-1.444h.447c.203 0 .304-.097.304-.29V9.404c0-.192-.101-.288-.304-.288h-.447v-.858h.447z" fill="#9D9D9D"></path></g></svg>
