<?xml version="1.0" encoding="UTF-8"?>
<svg width="20" height="20" viewBox="0 0 20 20" id="blog_nav_icon_ic_type_enterprise" version="1.1" xmlns="http://www.w3.org/2000/svg" xmlns:xlink="http://www.w3.org/1999/xlink"><g fill="none" fill-rule="evenodd"><path d="M0 0h20v20H0z"></path><path d="M10 6.111V3H2v14h16V6.111h-8zm-4.8 9.333H3.6V13.89h1.6v1.555zm0-3.11H3.6v-1.556h1.6v1.555zm0-3.112H3.6V7.667h1.6v1.555zm0-3.11H3.6V4.555h1.6V6.11zm3.2 9.332H6.8V13.89h1.6v1.555zm0-3.11H6.8v-1.556h1.6v1.555zm0-3.112H6.8V7.667h1.6v1.555zm0-3.11H6.8V4.555h1.6V6.11zm8 9.332H10V13.89h1.6v-1.556H10v-1.555h1.6V9.222H10V7.667h6.4v7.777zm-1.6-6.222h-1.6v1.556h1.6V9.222zm0 3.111h-1.6v1.556h1.6v-1.556z" fill="#9D9D9D"></path></g></svg>
