<?xml version="1.0" encoding="UTF-8"?>
<svg width="20" height="20" viewBox="0 0 20 20" id="blog_nav_icon_ic_type_maintain" version="1.1" xmlns="http://www.w3.org/2000/svg" xmlns:xlink="http://www.w3.org/1999/xlink"><g fill="none" fill-rule="evenodd"><path d="M0 0h20v20H0z"></path><path d="M15.403 14.734a.368.368 0 0 1-.004.524.37.37 0 0 1-.515-.008l-2.26-2.257a.365.365 0 0 1 .008-.519.38.38 0 0 1 .524 0l2.247 2.26zM14.404 2c.236 0 .475.018.711.075.25.043.476.117.694.209a.616.616 0 0 1 .192 1c-.467.466-.934.93-1.397 1.396l.079.279.07.284.288.078.28.075c.462-.468.93-.926 1.396-1.397a.62.62 0 0 1 .873 0 .63.63 0 0 1 .148.262c.083.2.149.41.188.62v.008h.004a3.609 3.609 0 0 1-.986 3.256 3.581 3.581 0 0 1-2.54 1.052c-.07 0-.14-.005-.21-.005l-.68.673 3.744 3.743.03.035c.476.494.712 1.127.712 1.76a2.51 2.51 0 0 1-.742 1.788l-.009.009a2.528 2.528 0 0 1-1.78.733 2.499 2.499 0 0 1-1.79-.742l-3.753-3.748-3.827 3.836c-.799.798-1.764.868-2.553.527a2.492 2.492 0 0 1-.807-.545h-.005a2.569 2.569 0 0 1-.541-.803c-.34-.79-.27-1.758.533-2.552v-.01l4.267-4.268-1.562-1.562-1.388-.414a.607.607 0 0 1-.392-.345l-1.332-3.12a.613.613 0 0 1 .11-.716l.558-.555.55-.549a.607.607 0 0 1 .672-.131l3.16 1.348c.166.07.297.21.349.394l.41 1.387L9.69 6.927l1.122-1.112a3.981 3.981 0 0 1-.009-.21h.005c0-1 .402-1.903 1.051-2.548v-.005A3.61 3.61 0 0 1 14.404 2zm-1.763 8.737l-1.842 1.842 3.745 3.744a1.304 1.304 0 0 0 1.841.004l.009-.004c.253-.244.37-.59.37-.92 0-.324-.117-.65-.353-.895l-.026-.027-3.744-3.744zM7.858 8.765l.964-.96-1.671-1.676a.623.623 0 0 1-.166-.306l-.362-1.226-2.514-1.06-.257.253-.258.261 1.07 2.514 1.265.37c.104.031.192.084.261.163l1.668 1.667zm6.459-5.534a2.354 2.354 0 0 0-1.59.698 2.343 2.343 0 0 0-.697 1.676h.009V5.776l.017.143a.608.608 0 0 1-.166.554l-8.296 8.292H3.59c-.384.397-.428.847-.27 1.218.064.143.165.287.282.41a1.4 1.4 0 0 0 .42.283c.37.162.815.118 1.209-.266l4.25-4.25.018-.018 2.706-2.71.017-.021 1.3-1.293h.004a.583.583 0 0 1 .52-.178c.06.009.118.017.183.017.044.004.105.01.175.01.654 0 1.248-.267 1.676-.686v-.009c.406-.402.663-.964.685-1.589-.266.271-.532.533-.799.808a.633.633 0 0 1-.62.187l-.62-.17-.628-.17a.598.598 0 0 1-.436-.437l-.166-.628-.17-.628a.6.6 0 0 1 .161-.58c.275-.28.55-.555.83-.834z" fill="#9D9D9D"></path></g></svg>
