<?xml version="1.0" encoding="UTF-8"?>
<svg width="20" height="20" viewBox="0 0 20 20" id="blog_nav_icon_ic_type_language" version="1.1" xmlns="http://www.w3.org/2000/svg" xmlns:xlink="http://www.w3.org/1999/xlink"><g fill="none" fill-rule="evenodd"><path d="M0 0h20v20H0z"></path><path d="M4.695 5.625a.966.966 0 0 0-.671.266h-.001L.329 9.338A.847.847 0 0 0 0 10c0 .246.11.468.285.627l3.747 3.5h.001a.966.966 0 0 0 .652.248c.518 0 .937-.392.937-.875a.842.842 0 0 0-.266-.609h.001l-3.09-2.887 3.08-2.876v-.001a.845.845 0 0 0 .285-.627c0-.483-.42-.875-.937-.875zM20 10c0-.265-.129-.5-.329-.66l-3.694-3.45v.001a.968.968 0 0 0-.672-.266c-.517 0-.937.392-.937.875 0 .246.11.468.285.627l3.08 2.877-3.09 2.886v.001a.843.843 0 0 0-.266.609c0 .483.42.875.937.875a.968.968 0 0 0 .653-.248l3.749-3.5h-.001A.842.842 0 0 0 20 10zm-7.506-7a.936.936 0 0 0-.882.578l-4.99 12.233a.819.819 0 0 0-.063.314c0 .483.42.875.937.875a.936.936 0 0 0 .882-.578l4.99-12.233a.812.812 0 0 0 .063-.314c0-.483-.42-.875-.937-.875z" fill="#9D9D9D"></path></g></svg>
