<?xml version="1.0" encoding="UTF-8"?>
<svg width="20" height="20" viewBox="0 0 20 20" id="blog_nav_icon_ic_type_frontend" version="1.1" xmlns="http://www.w3.org/2000/svg" xmlns:xlink="http://www.w3.org/1999/xlink"><g fill="none" fill-rule="evenodd"><path d="M0 0h20v20H0z"></path><path d="M3.8 3C2.81 3 2 3.788 2 4.75v10.5c0 .962.81 1.75 1.8 1.75h12.4c.99 0 1.8-.788 1.8-1.75V4.75C18 3.788 17.19 3 16.2 3H3.8zm.198 13A.998.998 0 0 1 3 14.99v-1.98c0-.558.446-1.01.998-1.01h7.004c.551 0 .998.443.998 1.01v1.98c0 .558-.446 1.01-.998 1.01H3.998zm0-5A.996.996 0 0 1 3 10V7c0-.552.446-1 .998-1h7.004c.551 0 .998.444.998 1v3c0 .552-.446 1-.998 1H3.998zm10.011 5c-.557 0-1.009-.456-1.009-.995v-8.01c0-.55.443-.995 1.01-.995h1.98c.558 0 1.01.456 1.01.995v8.01c0 .55-.443.995-1.01.995h-1.98z" fill="#9D9D9D"></path></g></svg>