<?xml version="1.0" encoding="UTF-8"?>
<svg width="16" height="16" viewBox="0 0 16 16" id="blog_nav_icon_ic_type_database" version="1.1" xmlns="http://www.w3.org/2000/svg" xmlns:xlink="http://www.w3.org/1999/xlink"><g transform="translate(-2 -2)" fill="none" fill-rule="evenodd"><path d="M0 0h20v20H0z"></path><path d="M10 2c-3.853 0-8 .91-8 2.91v10.18c0 2 4.147 2.91 8 2.91 3.853 0 8-.91 8-2.91V4.91c0-2-4.147-2.91-8-2.91zm0 1.455c4.216 0 6.396 1.042 6.543 1.454-.147.412-2.327 1.455-6.543 1.455S3.604 5.32 3.457 4.909C3.604 4.497 5.784 3.455 10 3.455zM3.455 6.677C5.002 7.453 7.559 7.818 10 7.818c2.44 0 4.998-.366 6.546-1.141V9.99c-.115.404-2.296 1.464-6.546 1.464-4.255 0-6.436-1.062-6.545-1.455V6.677zM10 16.545c-4.255 0-6.436-1.062-6.545-1.454v-3.323c1.547.775 4.104 1.141 6.545 1.141s4.999-.366 6.546-1.142v3.313c-.11.403-2.291 1.465-6.546 1.465z" fill="#9D9D9D"></path></g></svg>
