<?xml version="1.0" encoding="UTF-8"?>
<svg width="20" height="20" viewBox="0 0 20 20" id="blog_nav_icon_ic_type_misc" version="1.1" xmlns="http://www.w3.org/2000/svg" xmlns:xlink="http://www.w3.org/1999/xlink"><g fill="none" fill-rule="evenodd"><path d="M0 0h20v20H0z"></path><path d="M13.007 17H4.77c-.473 0-.902-.176-1.243-.51A1.717 1.717 0 0 1 3 15.239v-1.942l.018-.077c.092-.387.275-.69.543-.897a.992.992 0 0 1 .613-.206c.243 0 .494.08.768.244a1.2 1.2 0 0 0 .105.056l.065.011.09.045c.197.1.39.148.587.148a1.472 1.472 0 0 0 1.057-.433c.137-.138.241-.292.32-.474.075-.174.111-.36.111-.572a1.48 1.48 0 0 0-.906-1.381 1.452 1.452 0 0 0-1.165.013l-.029.013-.03.01a.658.658 0 0 0-.079.03c-.144.072-.287.14-.425.2a1.333 1.333 0 0 1-.682.119 1.008 1.008 0 0 1-.732-.462c-.138-.209-.21-.477-.228-.844L3 8.807V7.044c0-.479.18-.912.521-1.255a1.729 1.729 0 0 1 1.249-.524h1.5a3.145 3.145 0 0 1-.146-.958c0-.461.09-.9.265-1.302.173-.394.408-.743.7-1.036.291-.293.638-.53 1.03-.703A3.15 3.15 0 0 1 9.398 1c.448 0 .878.09 1.279.266.392.173.739.41 1.03.703.292.293.527.642.7 1.036.175.403.265.84.265 1.302 0 .337-.046.657-.137.958h.472c.48 0 .91.183 1.246.53.332.342.507.774.507 1.249v1.09c.318-.11.654-.165 1.004-.165.434 0 .854.086 1.248.255a3.262 3.262 0 0 1 1.72 1.73c.17.395.255.817.255 1.254 0 .45-.086.876-.256 1.267a3.262 3.262 0 0 1-1.719 1.717 3.138 3.138 0 0 1-2.252.09v.956c0 .478-.177.91-.513 1.246a1.715 1.715 0 0 1-1.24.516zm-8.673-3.445v1.683c0 .121.036.206.124.292a.41.41 0 0 0 .312.13h8.237a.38.38 0 0 0 .297-.123.385.385 0 0 0 .122-.299V11.69l1.099.94c.168.143.364.262.582.352.205.085.42.126.657.126.256 0 .493-.048.723-.147a1.945 1.945 0 0 0 1.021-1.02 1.8 1.8 0 0 0 .145-.732c0-.258-.048-.495-.146-.727a1.918 1.918 0 0 0-1.02-1.024c-.23-.1-.467-.148-.723-.148-.237 0-.452.042-.657.126-.218.09-.414.209-.582.353l-1.1.939V7.044a.415.415 0 0 0-.127-.313.369.369 0 0 0-.291-.125H9.973l.94-1.106c.285-.336.424-.727.424-1.193 0-.279-.05-.528-.152-.764a2.008 2.008 0 0 0-.42-.626 1.998 1.998 0 0 0-.624-.423 1.805 1.805 0 0 0-.743-.153c-.266 0-.509.05-.743.153a1.998 1.998 0 0 0-.623.423 2.009 2.009 0 0 0-.42.626 1.87 1.87 0 0 0-.153.764c0 .232.037.44.113.639.08.21.19.401.325.57l.867 1.09H4.77a.394.394 0 0 0-.306.131.397.397 0 0 0-.13.307v1.65c.046-.021.091-.044.137-.067.066-.033.14-.064.225-.093a2.792 2.792 0 0 1 3.093.597 2.836 2.836 0 0 1 .822 2.01c0 .393-.074.766-.222 1.107a2.82 2.82 0 0 1-2.6 1.713c-.38 0-.754-.086-1.114-.255a1.716 1.716 0 0 1-.34-.15z" fill="#9D9D9D"></path></g></svg>