<?xml version="1.0" encoding="UTF-8"?>
<svg width="20" height="20" viewBox="0 0 20 20" id="blog_nav_icon_ic_type_cloud" version="1.1" xmlns="http://www.w3.org/2000/svg" xmlns:xlink="http://www.w3.org/1999/xlink"><g fill="none" fill-rule="evenodd"><path d="M0 0h20v20H0z"></path><path d="M15.55 8.5A5.645 5.645 0 0 0 10 4C7.825 4 5.95 5.2 5.05 7 2.725 7.3 1 9.175 1 11.5 1 13.975 3.025 16 5.5 16h9.75c2.1 0 3.75-1.65 3.75-3.75 0-1.95-1.575-3.6-3.45-3.75zm-.3 6H5.5c-1.65 0-3-1.35-3-3s1.35-3 3-3h.525c.525-1.725 2.1-3 3.975-3 2.25 0 4.125 1.875 4.125 4.125V10h1.125c1.275 0 2.25.975 2.25 2.25s-.975 2.25-2.25 2.25z" fill="#9D9D9D"></path></g></svg>
