<?xml version="1.0" encoding="UTF-8"?>
<svg width="20" height="20" viewBox="0 0 20 20" id="blog_nav_icon_ic_type_software" version="1.1" xmlns="http://www.w3.org/2000/svg" xmlns:xlink="http://www.w3.org/1999/xlink"><g fill="none" fill-rule="evenodd"><path d="M0 0h20v20H0z"></path><path d="M9.1 10.206a.38.38 0 0 1-.187-.049.352.352 0 0 1-.133-.492l1.499-2.47a.378.378 0 0 1 .509-.13c.177.101.237.322.132.493l-1.498 2.47a.373.373 0 0 1-.321.178zm-1.452.206a.376.376 0 0 1-.294-.138L6.178 8.816a.35.35 0 0 1 .003-.445l1.176-1.424a.38.38 0 0 1 .522-.057c.161.123.187.35.059.505l-.993 1.203.996 1.234a.351.351 0 0 1-.065.504.379.379 0 0 1-.228.076zm4.686 0a.378.378 0 0 1-.231-.078.35.35 0 0 1-.06-.505l.993-1.203-.995-1.234a.351.351 0 0 1 .065-.505.38.38 0 0 1 .522.063l1.176 1.457a.35.35 0 0 1-.003.445l-1.176 1.425a.378.378 0 0 1-.29.135zM3.922 4.085c-.504 0-.908.294-.908.786v8.843c0 .393.404.786.808.786h4.707l-.154 1.573h-1.11c-.405 0-.708.49-.708.884h6.766c.1-.295-.202-.884-.606-.884h-1.11l-.155-1.573h4.708c.404 0 .808-.393.808-.786V4.871c0-.492-.404-.786-.808-.786H3.922zm.101 8.155V4.97H16.06v7.271H4.023z" fill="#9D9D9D"></path></g></svg>
