<?xml version="1.0" encoding="UTF-8"?>
<svg width="20" height="20" viewBox="0 0 20 20" id="blog_nav_icon_ic_type_game"  version="1.1" xmlns="http://www.w3.org/2000/svg" xmlns:xlink="http://www.w3.org/1999/xlink"><g fill="none" fill-rule="evenodd"><path d="M0 0h20v20H0z"></path><path d="M12.184 10l5.529-5.642a1.013 1.013 0 0 0 0-1.414C15.855 1.046 13.399 0 10.799 0 5.396 0 1 4.485 1 10s4.396 10 9.799 10c2.6 0 5.056-1.046 6.914-2.945a1.015 1.015 0 0 0 0-1.414L12.184 10zM3 10c0-4.411 3.62-8 8.067-8 1.802 0 3.52.595 4.933 1.693l-5.646 5.6a.995.995 0 0 0 0 1.414l5.646 5.6A8.002 8.002 0 0 1 11.067 18C6.619 18 3 14.411 3 10zm7.368-5.56a1.522 1.522 0 0 1 0 2.12 1.449 1.449 0 0 1-2.078 0 1.522 1.522 0 0 1 0-2.12 1.449 1.449 0 0 1 2.078 0z" fill="#9D9D9D"></path></g></svg>