<?xml version="1.0" encoding="UTF-8"?>
<svg width="16px" height="15px" viewBox="0 0 16 15" version="1.1" xmlns="http://www.w3.org/2000/svg" xmlns:xlink="http://www.w3.org/1999/xlink">
    <!-- Generator: Sketch 41.2 (35397) - http://www.bohemiancoding.com/sketch -->
    <title>ic_add</title>
    <desc>Created with Sketch.</desc>
    <defs>
        <circle id="path-1" cx="7.5" cy="7.5" r="7.5"></circle>
        <mask id="mask-2" maskContentUnits="userSpaceOnUse" maskUnits="objectBoundingBox" x="0" y="0" width="15" height="15" fill="white">
            <use xlink:href="#path-1"></use>
        </mask>
    </defs>
    <g id="mockup" stroke="none" stroke-width="1" fill="none" fill-rule="evenodd">
        <g id="社区首页" transform="translate(-944.000000, -1487.000000)">
            <g id="bbs" transform="translate(101.000000, 1482.000000)">
                <g id="title" transform="translate(18.209157, 0.000000)">
                    <g id="ic_add" transform="translate(824.832466, 5.000000)">
                        <use id="Oval-9" stroke="#9B9B9B" mask="url(#mask-2)" stroke-width="2" xlink:href="#path-1"></use>
                        <path d="M7,7 L4.50342274,7 C4.23290253,7 4,7.22385763 4,7.5 C4,7.76806641 4.22539004,8 4.50342274,8 L7,8 L7,10.4965773 C7,10.7670975 7.22385763,11 7.5,11 C7.76806641,11 8,10.77461 8,10.4965773 L8,8 L10.4965773,8 C10.7670975,8 11,7.77614237 11,7.5 C11,7.23193359 10.77461,7 10.4965773,7 L8,7 L8,4.50342274 C8,4.23290253 7.77614237,4 7.5,4 C7.23193359,4 7,4.22539004 7,4.50342274 L7,7 Z" id="Combined-Shape" fill="#9B9B9B"></path>
                    </g>
                </g>
            </g>
        </g>
    </g>
</svg>