<svg width="9" height="15" viewBox="0 0 9 15" xmlns="http://www.w3.org/2000/svg"><title>iconfont-zhicheng</title><g fill="#E3E3E3" fill-rule="evenodd"><path d="M2.966 3.462h2.49c.033 0 .06-.023.067-.061l.913-2.061c.007-.047-.02-.093-.067-1.254H2.134c-.041 0-.068.87-.068.915V.232 1.41L2.898 3.4c.007.038.034.061.068.061zM5.49 4.136H2.958a.082.082 0 0 0-.068.04L.023 11.869a.06.06 0 0 0 .02.065l4.174 3.038a.08.08 0 0 0 .088 0l4.073-2.95a.06.06 0 0 0 .02-.065l-2.841-7.78c-.007-.023-.034-.04-.068-.04z"/></g></svg>