<?xml version="1.0" encoding="UTF-8" standalone="no"?>
<svg width="24px" height="23px" viewBox="0 0 24 23" version="1.1" xmlns="http://www.w3.org/2000/svg" xmlns:xlink="http://www.w3.org/1999/xlink">
    <!-- Generator: Sketch 39.1 (31720) - http://www.bohemiancoding.com/sketch -->
    <title>ic_blog_share_actived</title>
    <desc>Created with Sketch.</desc>
    <defs></defs>
    <g id="详情" stroke="none" stroke-width="1" fill="none" fill-rule="evenodd">
        <g id="osc博客详情页面参数" transform="translate(-765.000000, -629.000000)" fill="#4EAA4C">
            <path d="M784.313317,644.063439 C783.056256,644.063439 781.937919,644.649849 781.222908,645.560702 L773.48178,641.770412 C773.577737,641.435416 773.629255,641.081884 773.629255,640.716494 C773.629255,640.2501 773.545558,639.803067 773.39213,639.389194 L781.3402,635.499807 C782.057205,636.328858 783.122931,636.85464 784.313188,636.85464 C786.471991,636.85464 788.222029,635.125611 788.222029,632.992818 C788.222029,630.859898 786.471991,629.130869 784.313317,629.130869 C782.154481,629.130869 780.404444,630.859898 780.404444,632.992691 C780.404444,633.372419 780.460113,633.739081 780.563439,634.085713 L772.520024,638.021834 C771.809969,637.301896 770.818158,636.854672 769.720382,636.854672 C767.561675,636.854672 765.811638,638.583701 765.811638,640.716494 C765.811638,642.849382 767.561675,644.578412 769.720382,644.578412 C770.932424,644.578412 772.015623,644.033331 772.732532,643.177734 L780.519965,646.99066 C780.444635,647.289954 780.404444,647.603045 780.404444,647.925356 C780.404444,650.058181 782.154481,651.787179 784.313188,651.787179 C786.471991,651.787179 788.222029,650.058149 788.222029,647.925356 C788.222061,645.792436 786.472023,644.063439 784.313317,644.063439 M784.313317,630.675661 C785.608541,630.675661 786.658531,631.713047 786.658531,632.992723 C786.658531,634.272525 785.608541,635.309911 784.313317,635.309911 C784.28072,635.309911 784.248251,635.308989 784.216073,635.307749 C784.211535,635.307527 784.206966,635.307368 784.202365,635.307273 C784.171698,635.305778 784.141161,635.303744 784.110816,635.301232 C784.105249,635.300787 784.09965,635.300246 784.094083,635.299738 C784.063771,635.296972 784.033716,635.293602 784.00379,635.289723 C783.999221,635.289214 783.994683,635.288483 783.99021,635.287847 C783.958901,635.283555 783.927719,635.278977 783.896924,635.273445 C783.896506,635.273318 783.896056,635.273318 783.895637,635.273191 C783.864714,635.267659 783.833886,635.261428 783.803478,635.254783 C783.799681,635.254052 783.796012,635.253257 783.792183,635.252399 C783.762739,635.245786 783.733457,635.238474 783.704399,635.230875 C783.699605,635.229604 783.694939,635.228364 783.690112,635.226997 C783.661183,635.219239 783.632544,635.210814 783.604163,635.201944 C783.600237,635.200704 783.596408,635.199433 783.592579,635.198288 C783.56291,635.18875 783.533402,635.178895 783.504184,635.16834 C783.504087,635.168213 783.50383,635.168213 783.503733,635.168085 C783.474064,635.157308 783.444621,635.145799 783.415467,635.133845 C783.413086,635.132859 783.410672,635.132001 783.40813,635.130984 C783.380071,635.119316 783.352461,635.107171 783.324916,635.094518 C783.32128,635.092769 783.317483,635.091116 783.31375,635.089399 C783.286624,635.076714 783.259626,635.063584 783.232982,635.049786 C783.229925,635.048292 783.226997,635.046702 783.224004,635.045176 C783.167949,635.015991 783.113084,634.984802 783.059796,634.951357 C783.058541,634.950625 783.057286,634.949831 783.055999,634.949099 C783.029999,634.932695 783.004513,634.91594 782.979285,634.898645 C782.976486,634.896737 782.973718,634.894862 782.970919,634.892859 C782.946045,634.875723 782.921557,634.858173 782.897487,634.840115 C782.895106,634.838366 782.892692,634.836491 782.890247,634.834583 C782.865533,634.815921 782.841078,634.796782 782.817105,634.777103 C782.394245,634.430724 782.096753,633.940422 782.001182,633.382179 C781.990531,633.320439 781.982422,633.257776 781.976984,633.194414 C781.976726,633.191902 781.976437,633.189295 781.976179,633.186656 C781.973798,633.157089 781.971771,633.127395 781.970484,633.097415 C781.970226,633.092678 781.970097,633.087941 781.970001,633.083299 C781.968746,633.053223 781.967941,633.02318 781.967941,632.99285 C781.967974,631.713047 783.017964,630.675661 784.313317,630.675661 M769.720382,643.033683 C768.425158,643.033683 767.375168,641.996297 767.375168,640.716494 C767.375168,639.436819 768.425158,638.399433 769.720382,638.399433 C771.015703,638.399433 772.065725,639.436819 772.065725,640.716494 C772.065725,641.996265 771.015703,643.033683 769.720382,643.033683 M784.313317,650.24245 C783.017964,650.24245 781.967974,649.205064 781.967974,647.925388 C781.967974,647.888541 781.969003,647.851979 781.970612,647.815641 C781.970612,647.815005 781.970612,647.814528 781.970741,647.813892 C781.972414,647.777458 781.975214,647.740992 781.978593,647.704908 C782.039507,647.067629 782.361551,646.505635 782.837795,646.124317 L782.837924,646.12419 C782.866595,646.101268 782.895878,646.078854 782.925675,646.057299 C782.925933,646.057172 782.925933,646.057044 782.926062,646.056917 C782.955859,646.035362 782.986075,646.014602 783.01687,645.994286 C783.017127,645.994159 783.01732,645.993905 783.017739,645.993778 C783.048308,645.973748 783.079361,645.954323 783.110896,645.935661 C783.111443,645.935248 783.111926,645.934993 783.11244,645.934803 C783.14375,645.916236 783.175672,645.898464 783.208076,645.881296 L783.210199,645.880152 C783.242249,645.86327 783.274846,645.846992 783.307958,645.831446 C783.308827,645.831032 783.309824,645.830587 783.310758,645.830174 C783.34358,645.814755 783.376788,645.800098 783.410544,645.786237 C783.41167,645.785823 783.412796,645.785347 783.413955,645.784838 C783.447517,645.77104 783.481369,645.758037 783.515639,645.745765 L783.519694,645.744366 C783.553932,645.732222 783.588395,645.72084 783.623277,645.710317 C783.624789,645.709776 783.626334,645.709426 783.627718,645.708918 C783.662567,645.698394 783.697706,645.688634 783.733199,645.679732 C783.734873,645.679351 783.736385,645.679001 783.738058,645.678588 C783.773551,645.669718 783.809302,645.661706 783.845439,645.654426 C783.846951,645.654044 783.848496,645.653821 783.850008,645.653567 C783.886273,645.646414 783.922796,645.640024 783.959673,645.634523 C783.961089,645.634237 783.962472,645.634142 783.963888,645.633919 C784.000894,645.628388 784.038157,645.623746 784.075838,645.619994 C784.076835,645.619867 784.077962,645.619867 784.07912,645.61974 C784.117027,645.615989 784.155319,645.613095 784.193773,645.61122 L784.195639,645.611092 C784.234543,645.609185 784.273866,645.608199 784.313284,645.608199 C785.608508,645.608199 786.658499,646.645585 786.658499,647.925388 C786.658531,649.205064 785.608541,650.24245 784.313317,650.24245" id="ic_blog_share_actived"></path>
        </g>
    </g>
</svg>