<?xml version="1.0" encoding="UTF-8" standalone="no"?>
<svg width="20px" height="20px" viewBox="0 0 20 20" version="1.1" xmlns="http://www.w3.org/2000/svg" xmlns:xlink="http://www.w3.org/1999/xlink">
    <!-- Generator: Sketch 39.1 (31720) - http://www.bohemiancoding.com/sketch -->
    <title>Shape Copy 4</title>
    <desc>Created with Sketch.</desc>
    <defs></defs>
    <g id="mockups" stroke="none" stroke-width="1" fill="none" fill-rule="evenodd">
        <g id="项目详情" transform="translate(-915.000000, -179.000000)" fill="#E0DFDD">
            <g id="head" transform="translate(0.000000, 150.000000)">
                <g id="review" transform="translate(750.000000, 15.000000)">
                    <g id="stars" transform="translate(65.000000, 14.000000)">
                        <path d="M115.261645,19.9130435 C115.094655,19.9130435 114.760674,19.9130435 114.593683,19.7391304 L109.91795,16.4347826 L105.242216,19.7391304 C104.741245,20.0869565 104.240273,20.0869565 103.739302,19.7391304 C103.23833,19.3913043 103.07134,18.8695652 103.23833,18.3478261 L104.908235,12.6086957 L100.399492,8.95652174 C100.065511,8.60869565 99.8985207,8.08695652 100.065511,7.56521739 C100.232502,7.04347826 100.733473,6.69565217 101.234445,6.69565217 L106.74513,6.34782609 L108.749016,0.782608696 C109.082997,-0.260869565 110.752902,-0.260869565 111.086883,0.782608696 L111.086883,0.782608696 L113.090769,6.34782609 L118.768445,6.52173913 C119.269417,6.52173913 119.770388,6.86956522 119.937379,7.39130435 C120.104369,7.91304348 119.937379,8.43478261 119.436407,8.7826087 L114.927664,12.6086957 L116.430578,18.3478261 C116.597569,18.8695652 116.430578,19.3913043 115.929607,19.7391304 C115.762617,19.7391304 115.595626,19.9130435 115.261645,19.9130435 L115.261645,19.9130435 Z" id="Shape-Copy-4"></path>
                    </g>
                </g>
            </g>
        </g>
    </g>
</svg>