<svg width="24" height="24" viewBox="0 0 24 24" xmlns="http://www.w3.org/2000/svg"><title>ic_blog_good</title><path d="M21.555 8.08c-.91-.24-3.055-.237-6.19-.32.15-.683.183-1.3.183-2.393 0-2.614-1.906-4.917-3.592-4.917A2.2 2.2 0 0 0 9.77 2.62c-.017 1.466-.47 4-2.917 5.285-.18.095-.693.348-.768.381l.039.033c-.383-.33-.914-.583-1.459-.583H2.477A2.19 2.19 0 0 0 .289 9.922v11.657c0 1.206.982 2.186 2.188 2.186h2.187c.868 0 1.594-.524 1.946-1.258a.24.24 0 0 0 .034.009l.174.045c.013.003.02.004.034.009.42.103 1.228.297 2.956.694.371.084 2.327.5 4.356.5h3.986c1.215 0 2.116-.452 2.612-1.404.484-.847 2.863-5.384 2.86-11.778 0-.92-.637-2.094-2.067-2.502zM5.394 21.58a.728.728 0 0 1-.73.728H2.477a.729.729 0 0 1-.73-.729V9.922c0-.403.327-.729.73-.729h2.187c.403 0 .73.326.73.729v11.657zm16.754-10.54c-.304 7.323-2.67 10.632-2.67 10.632-.222.397-.576.636-1.328.636h-3.986c-2.003 0-3.989-.454-4.04-.466-3.03-.697-3.189-.75-3.379-.805l.107-10.705c0-1.107.025-.828 0-.814 3.331-1.378 4.345-4.4 4.375-6.882.004-.349.273-.729.729-.729.771 0 2.133 1.547 2.133 3.46 0 1.727-.069 2.026-.675 3.826 7.292 0 7.24.105 7.885.273.797.228.865.888.865 1.116 0 .25-.007.213-.016.458z" fill="#5B5C5F" fill-rule="evenodd"/></svg>