<?xml version="1.0" encoding="UTF-8" standalone="no"?>
<svg width="23px" height="23px" viewBox="0 0 23 23" version="1.1" xmlns="http://www.w3.org/2000/svg" xmlns:xlink="http://www.w3.org/1999/xlink">
    <!-- Generator: Sketch 39.1 (31720) - http://www.bohemiancoding.com/sketch -->
    <title>Group 2</title>
    <desc>Created with Sketch.</desc>
    <defs></defs>
    <g id="详情" stroke="none" stroke-width="1" fill="none" fill-rule="evenodd">
        <g id="osc博客详情页面参数" transform="translate(-266.000000, -559.000000)" fill="#4EAA4C">
            <g id="Group-2" transform="translate(266.000000, 559.000000)">
                <path d="M11.5034276,0.0194763231 C5.16606267,0.0194763231 0.00989832869,5.16763231 0.00989832869,11.4956114 C0.00989832869,17.8235905 5.16603064,22.9719708 11.5034276,22.9719708 C17.8408245,22.9719708 22.9969248,17.8236226 22.9969248,11.4956114 C22.9969248,5.16760028 17.8407925,0.0194763231 11.5034276,0.0194763231 L11.5034276,0.0194763231 Z M11.5034276,21.389071 C6.03999861,21.389071 1.59523259,16.9508398 1.59523259,11.4956435 C1.59523259,6.04044708 6.03999861,1.60240808 11.5034276,1.60240808 C16.9668565,1.60240808 21.4116226,6.04044708 21.4116226,11.4956435 C21.4116226,16.9508398 16.9668565,21.389071 11.5034276,21.389071 L11.5034276,21.389071 Z" id="Fill-1"></path>
                <path d="M15.0704457,12.2871574 C15.7270989,12.2871574 16.2594304,11.9328357 16.2594304,11.4957075 C16.2594304,11.0586114 15.7270989,10.7042256 15.0704457,10.7042256 L13.0905237,10.7042256 C13.1028245,10.6904833 13.1150292,10.6765487 13.1270097,10.6622618 L15.6745641,7.63081058 C16.0966685,7.12852646 16.1669499,6.49359192 15.831624,6.21262674 C15.496266,5.93169359 14.8822173,6.11108078 14.4601448,6.61333287 L11.9125905,9.64481616 C11.7747507,9.8088273 11.6747103,9.98696518 11.6137827,10.1623482 C11.5528231,9.98699721 11.4527827,9.8088273 11.3149429,9.64484819 L8.76738858,6.6133649 C8.34528412,6.11111281 7.73126741,5.93169359 7.3959415,6.21265877 C7.06058357,6.49362396 7.13089694,7.1285585 7.55296936,7.63084262 L10.1005557,10.6622939 C10.1125362,10.6765808 10.1247089,10.6905153 10.1370097,10.7042577 L7.93656964,10.7042577 C7.27991643,10.7042577 6.74758496,11.0586114 6.74758496,11.4957396 C6.74758496,11.9328357 7.27991643,12.2871894 7.93656964,12.2871894 L10.7108565,12.2871894 L10.7108565,13.8700891 L7.54220613,13.8700891 C7.10312396,13.8700891 6.74758496,14.2244429 6.74758496,14.661571 C6.74758496,15.1017423 7.10334819,15.4530209 7.54220613,15.4530209 L10.7108886,15.4530209 L10.7108886,17.0359526 C10.7108886,17.6915808 11.0657549,18.2231435 11.5035237,18.2231435 C11.9412925,18.2231435 12.2961588,17.6915808 12.2961588,17.0359526 L12.2961588,15.4530209 L15.4648412,15.4530209 C15.9039234,15.4530209 16.2594624,15.0986992 16.2594624,14.661571 C16.2594624,14.2213997 15.9036992,13.8700891 15.4648412,13.8700891 L12.2961588,13.8700891 L12.2961588,12.2871894 L15.0704457,12.2871894 L15.0704457,12.2871574" id="Fill-2"></path>
            </g>
        </g>
    </g>
</svg>