<svg width="23" height="23" viewBox="0 0 23 23" xmlns="http://www.w3.org/2000/svg"><title>Group</title><g fill="#5B5C5F" fill-rule="evenodd"><path d="M11.503.02C5.166.02.01 5.167.01 11.495c0 6.328 5.156 11.476 11.493 11.476 6.338 0 11.494-5.148 11.494-11.476C22.997 5.168 17.84.019 11.503.019zm0 21.37c-5.463 0-9.908-4.44-9.908-9.894 0-5.456 4.445-9.894 9.908-9.894 5.464 0 9.909 4.438 9.909 9.894 0 5.455-4.445 9.893-9.909 9.893z"/><path d="M15.07 12.287c.657 0 1.19-.354 1.19-.791 0-.437-.533-.792-1.19-.792h-1.98a1.72 1.72 0 0 0 .037-.042l2.548-3.031c.422-.502.492-1.137.157-1.418-.336-.281-.95-.102-1.372.4l-2.547 3.032a1.658 1.658 0 0 0-.3.517 1.659 1.659 0 0 0-.298-.517L8.767 6.613c-.422-.502-1.036-.681-1.371-.4-.335.28-.265.916.157 1.418l2.548 3.031.036.042h-2.2c-.657 0-1.19.355-1.19.792 0 .437.533.791 1.19.791h2.774v1.583H7.542a.791.791 0 1 0 0 1.583h3.169v1.583c0 .656.355 1.187.793 1.187.437 0 .792-.531.792-1.187v-1.583h3.169a.791.791 0 1 0 0-1.583h-3.169v-1.583h2.774"/></g></svg>