<?xml version="1.0" encoding="UTF-8"?>
<svg width="20px" height="20px" viewBox="0 0 20 20" version="1.1" xmlns="http://www.w3.org/2000/svg" xmlns:xlink="http://www.w3.org/1999/xlink">
    <!-- Generator: Sketch 41.2 (35397) - http://www.bohemiancoding.com/sketch -->
    <title>Shape Copy 2</title>
    <desc>Created with Sketch.</desc>
    <defs></defs>
    <g id="问答" stroke="none" stroke-width="1" fill="none" fill-rule="evenodd">
        <g id="问答详情" transform="translate(-161.000000, -319.000000)" fill="#F5A622">
            <g id="content_left" transform="translate(120.000000, 111.000000)">
                <g id="content" transform="translate(25.000000, 64.000000)">
                    <g id="Group-2" transform="translate(0.000000, 144.000000)">
                        <path d="M31.2616451,19.9130435 C31.0946546,19.9130435 30.7606736,19.9130435 30.5936831,19.7391304 L25.9179496,16.4347826 L21.2422161,19.7391304 C20.7412447,20.0869565 20.2402732,20.0869565 19.7393018,19.7391304 C19.2383303,19.3913043 19.0713399,18.8695652 19.2383303,18.3478261 L20.9082352,12.6086957 L16.3994921,8.95652174 C16.0655112,8.60869565 15.8985207,8.08695652 16.0655112,7.56521739 C16.2325017,7.04347826 16.7334731,6.69565217 17.2344446,6.69565217 L22.7451305,6.34782609 L24.7490163,0.782608696 C25.0829972,-0.260869565 26.752902,-0.260869565 27.086883,0.782608696 L27.086883,0.782608696 L29.0907688,6.34782609 L34.7684452,6.52173913 C35.2694166,6.52173913 35.7703881,6.86956522 35.9373786,7.39130435 C36.1043691,7.91304348 35.9373786,8.43478261 35.4364071,8.7826087 L30.9276641,12.6086957 L32.4305784,18.3478261 C32.5975689,18.8695652 32.4305784,19.3913043 31.929607,19.7391304 C31.7626165,19.7391304 31.595626,19.9130435 31.2616451,19.9130435 L31.2616451,19.9130435 Z" id="Shape-Copy-2"></path>
                    </g>
                </g>
            </g>
        </g>
    </g>
</svg>