<svg width="27" height="20" viewBox="0 0 27 20" xmlns="http://www.w3.org/2000/svg"><title>Fill 3</title><path d="M13.5 0C4.5 0 0 10.046 0 10.046S4.5 20 13.5 20 27 10 27 10 22.5 0 13.5 0zm0 17.778c-5.947 0-9.702-5.523-10.968-7.737C3.797 7.806 7.552 2.222 13.5 2.222S23.204 7.777 24.468 10c-1.267 2.227-5.021 7.778-10.968 7.778zm0-12.222C11.015 5.556 9 7.546 9 10c0 2.455 2.015 4.444 4.5 4.444S18 12.454 18 10c0-2.454-2.015-4.444-4.5-4.444zm0 6.666c-1.24 0-2.25-.997-2.25-2.222s1.01-2.222 2.25-2.222 2.25.997 2.25 2.222-1.01 2.222-2.25 2.222z" fill="#9D9D9D" fill-rule="evenodd"/></svg>