<svg width="16" height="15" viewBox="0 0 16 15" xmlns="http://www.w3.org/2000/svg" xmlns:xlink="http://www.w3.org/1999/xlink"><title>ic_comment_30 copy</title><defs><path d="M1100 1183.01c0-1.11.895-2.01 1.994-2.01h12.012c1.101 0 1.994.902 1.994 2.01v7.986c0 1.11-.891 2.01-2.01 2.01h-.72c-1.11 0-2.644.632-3.428 1.413l-.376.375c-.783.78-2.05.78-2.831 0l-.375-.375c-.78-.78-2.302-1.413-3.413-1.413H1102c-1.104 0-1.999-.903-1.999-2.01v-7.986z" id="a"/><mask id="b" x="0" y="0" width="16" height="14.379" fill="#fff"><use xlink:href="#a"/></mask></defs><use mask="url(#b)" xlink:href="#a" transform="translate(-1100 -1181)" stroke="#999" stroke-width="2" fill="none" fill-rule="evenodd"/></svg>