<?xml version="1.0" encoding="UTF-8"?>
<svg width="17" height="17" viewBox="0 0 17 17" id="ic-comment-unlike"  version="1.1" xmlns="http://www.w3.org/2000/svg" xmlns:xlink="http://www.w3.org/1999/xlink">
<path d="M15.249 5.895c-.625-.164-2.095-.162-4.244-.218.102-.47.125-.892.125-1.642 0-1.792-1.307-3.371-2.463-3.371-.817 0-1.49.667-1.5 1.487-.012 1.006-.323 2.744-2 3.625-.123.065-.475.238-.527.26l.027.023c-.263-.226-.627-.4-1-.4h-1.5c-.827 0-1.5.673-1.5 1.5v7.993a1.5 1.5 0 0 0 1.5 1.499h1.5c.595 0 1.092-.36 1.334-.863a.164.164 0 0 0 .023.006l.12.031.023.006c.288.071.842.204 2.027.476.254.058 1.596.344 2.987.344h2.733c.833 0 1.45-.31 1.79-.963.333-.581 1.964-3.692 1.963-8.077 0-.63-.437-1.436-1.418-1.716zM4.167 15.152a.5.5 0 0 1-.5.5h-1.5a.5.5 0 0 1-.5-.5V7.158a.5.5 0 0 1 .5-.499h1.5a.5.5 0 0 1 .5.5v7.993zm11.488-7.227c-.208 5.021-1.831 7.29-1.831 7.29-.151.273-.395.437-.91.437H10.18c-1.374 0-2.736-.312-2.77-.32-2.078-.477-2.187-.515-2.318-.552l.074-7.34c0-.76.017-.568 0-.558 2.284-.945 2.98-3.018 3-4.72.003-.239.187-.5.5-.5.529 0 1.463 1.061 1.463 2.373 0 1.185-.048 1.39-.463 2.624 5 0 4.965.072 5.406.187a.766.766 0 0 1 .594.765c0 .171-.005.147-.012.314z" fill="#999" fill-rule="evenodd"></path></svg>