<?xml version="1.0" encoding="UTF-8" standalone="no"?>
<svg width="24px" height="24px" viewBox="0 0 24 24" version="1.1" xmlns="http://www.w3.org/2000/svg" xmlns:xlink="http://www.w3.org/1999/xlink">
    <!-- Generator: Sketch 39.1 (31720) - http://www.bohemiancoding.com/sketch -->
    <title>ic_blog_good_actived</title>
    <desc>Created with Sketch.</desc>
    <defs></defs>
    <g id="详情" stroke="none" stroke-width="1" fill="none" fill-rule="evenodd">
        <g id="osc博客详情页面参数" transform="translate(-433.000000, -628.000000)" fill="#4EAA4C">
            <path d="M454.554967,636.079607 C453.644234,635.840645 451.500224,635.843461 448.365578,635.760922 C448.514453,635.077097 448.547839,634.460929 448.547839,633.3667 C448.547839,630.75268 446.642323,628.450247 444.956074,628.450247 C443.765579,628.450247 442.783559,629.4229 442.76855,630.619198 C442.752189,632.086031 442.298576,634.620352 439.851889,635.905348 C439.672401,636.000021 439.159026,636.252583 439.084211,636.285965 L439.122684,636.318729 C438.739578,635.989008 438.209087,635.736057 437.664434,635.736057 L435.476818,635.736057 C434.270581,635.736057 433.289385,636.716861 433.289385,637.9217 L433.289385,649.57923 C433.289385,650.784526 434.270581,651.764872 435.476818,651.764872 L437.664434,651.764872 C438.532478,651.764872 439.257971,651.241249 439.609776,650.507054 C439.618277,650.509847 439.633905,650.514128 439.643941,650.515525 C439.692336,650.528347 439.748568,650.542565 439.81832,650.56111 C439.831152,650.563904 439.838232,650.5653 439.851844,650.569582 C440.272002,650.673413 441.080216,650.866973 442.808398,651.263938 C443.179406,651.34792 445.135448,651.764827 447.164176,651.764827 L451.149679,651.764827 C452.36522,651.764827 453.266031,651.312019 453.761647,650.360315 C454.245966,649.51329 456.625101,644.97631 456.622832,638.581827 C456.622442,637.661605 455.985422,636.487928 454.554875,636.079515 L454.554875,636.079515 L454.554967,636.079607 Z M438.393548,649.579276 C438.393548,649.981987 438.067475,650.307884 437.664457,650.307884 L435.476841,650.307884 C435.073822,650.307884 434.747659,649.981965 434.747659,649.579276 L434.747659,637.9217 C434.747659,637.519011 435.073845,637.193457 435.476841,637.193457 L437.664457,637.193457 C438.067475,637.193457 438.393548,637.519011 438.393548,637.9217 L438.393548,649.579276 L438.393548,649.579276 Z M455.148083,639.040175 C454.844009,646.362504 452.477088,649.671774 452.477088,649.671774 C452.256354,650.068739 451.901684,650.307838 451.149748,650.307838 L447.164222,650.307838 C445.161158,650.307838 443.175143,649.853863 443.123815,649.842461 C440.094736,649.14522 439.935229,649.09114 439.745039,649.037107 L439.851844,638.33231 C439.851844,637.224779 439.876774,637.504449 439.851844,637.518278 C443.183003,636.140166 444.196943,633.117756 444.2268,630.635958 C444.231131,630.287326 444.500261,629.907372 444.956006,629.907372 C445.727259,629.907372 447.089475,631.453562 447.089475,633.3667 C447.089475,635.094223 447.020388,635.392989 446.414393,637.19348 C453.706171,637.19348 453.65482,637.297678 454.298532,637.466374 C455.096068,637.694071 455.164399,638.354382 455.164399,638.581919 C455.164399,638.831642 455.157295,638.795375 455.148015,639.040175 L455.148015,639.040175 L455.148083,639.040175 Z" id="ic_blog_good_actived"></path>
        </g>
    </g>
</svg>