<svg width="24" height="23" viewBox="0 0 24 23" xmlns="http://www.w3.org/2000/svg"><title>ic_blog_share</title><path d="M19.313 15.063a3.919 3.919 0 0 0-3.09 1.498l-7.741-3.79a3.822 3.822 0 0 0-.09-2.382L16.34 6.5a3.92 3.92 0 0 0 2.973 1.356c2.159 0 3.909-1.73 3.909-3.862 0-2.133-1.75-3.862-3.909-3.862s-3.909 1.729-3.909 3.862c0 .38.056.746.16 1.093L7.52 9.022a3.92 3.92 0 0 0-2.8-1.167c-2.158 0-3.908 1.729-3.908 3.861 0 2.133 1.75 3.862 3.908 3.862a3.92 3.92 0 0 0 3.013-1.4l7.787 3.813c-.075.299-.116.612-.116.934 0 2.133 1.75 3.862 3.91 3.862 2.158 0 3.908-1.729 3.908-3.862s-1.75-3.862-3.909-3.862m0-13.387c1.296 0 2.346 1.037 2.346 2.317 0 1.28-1.05 2.317-2.346 2.317a2.525 2.525 0 0 1-.202-.009l-.017-.001a2.395 2.395 0 0 1-.09-.01l-.014-.002a2.278 2.278 0 0 1-.093-.015h-.001a2.47 2.47 0 0 1-.292-.071l-.011-.004a2.328 2.328 0 0 1-.177-.064l-.008-.003a2.482 2.482 0 0 1-.083-.036l-.011-.006a2.227 2.227 0 0 1-.081-.04c-.003 0-.006-.002-.009-.004-.056-.029-.11-.06-.164-.094l-.004-.002a2.405 2.405 0 0 1-.077-.05l-.008-.006a2.237 2.237 0 0 1-.154-.116 2.308 2.308 0 0 1-.84-1.583v-.007a2.384 2.384 0 0 1-.01-.194c.001-1.28 1.051-2.317 2.346-2.317M4.72 14.034c-1.295 0-2.345-1.038-2.345-2.318S3.425 9.4 4.72 9.4c1.296 0 2.346 1.038 2.346 2.317 0 1.28-1.05 2.318-2.346 2.318m14.593 7.208c-1.295 0-2.345-1.037-2.345-2.317l.003-.11v-.001a2.305 2.305 0 0 1 .867-1.69l.088-.067.09-.063h.002a2.404 2.404 0 0 1 .19-.113h.002a2.382 2.382 0 0 1 .306-.135l.004-.002.103-.034.005-.001a2.302 2.302 0 0 1 .217-.055h.005c.036-.008.073-.014.11-.02h.004c.037-.006.074-.01.112-.014h.003c.038-.004.076-.007.115-.009h.002l.117-.003c1.296 0 2.345 1.038 2.345 2.317 0 1.28-1.05 2.317-2.345 2.317" fill="#5B5C5F" fill-rule="evenodd"/></svg>