<svg width="26" height="25" viewBox="0 0 26 25" xmlns="http://www.w3.org/2000/svg"><title>ic_blog_collect_actived</title><path d="M17.263 8.651l-3.45-6.955L13.097.25l-.717 1.445L8.93 8.65l.602-.436L1.818 9.33l-1.61.233 1.168 1.133 5.582 5.414-.232-.71-1.317 7.645-.275 1.595 1.434-.75 6.9-3.61h-.742l6.9 3.61 1.433.75-.274-1.595-1.318-7.645-.232.71 5.582-5.414 1.169-1.133-1.611-.233-7.714-1.115.602.436zm5.271 2.03l-4.413 4.28-.303.295.072.416 1.046 6.052-5.469-2.861-.37-.194-.371.194-5.465 2.855 1.042-6.046.072-.416-.303-.294-4.419-4.28 6.108-.884.416-.06.186-.376 2.728-5.522 2.739 5.522.186.376.416.06 6.102.884z" fill="#5B5C5F" fill-rule="evenodd"/></svg>