<?xml version="1.0" encoding="UTF-8"?>
<svg width="339px" height="272px" viewBox="0 0 339 272" version="1.1" xmlns="http://www.w3.org/2000/svg" xmlns:xlink="http://www.w3.org/1999/xlink">
    <!-- Generator: Sketch 41.2 (35397) - http://www.bohemiancoding.com/sketch -->
    <title>Shape</title>
    <desc>Created with Sketch.</desc>
    <defs>
        <linearGradient x1="32.1539479%" y1="0%" x2="32.1539491%" y2="100%" id="linearGradient-1">
            <stop stop-color="#00C746" offset="0%"></stop>
            <stop stop-color="#00E19D" offset="100%"></stop>
        </linearGradient>
        <rect id="path-2" x="0" y="0" width="339" height="272" rx="3"></rect>
    </defs>
    <g id="问答" stroke="none" stroke-width="1" fill="none" fill-rule="evenodd">
        <g id="我要提问" transform="translate(-913.000000, -260.000000)">
            <g id="content" transform="translate(121.000000, 187.000000)">
                <g id="help" transform="translate(792.000000, 73.000000)">
                    <g id="Shape">
                        <mask id="mask-3" fill="white">
                            <use xlink:href="#path-2"></use>
                        </mask>
                        <g id="Mask">
                            <use fill="#49AB4F" xlink:href="#path-2"></use>
                            <use fill-opacity="0.6" fill="url(#linearGradient-1)" style="mix-blend-mode: lighten;" xlink:href="#path-2"></use>
                        </g>
                        <path d="M279.484472,81 C263.906832,81 251.608696,93.2981366 251.608696,108.875776 C251.608696,116.254658 254.888199,123.63354 259.807453,128.552795 L223.732919,164.627329 C220.453416,162.987578 216.354037,162.167702 212.254658,162.167702 C204.875776,162.167702 198.31677,164.627329 193.397516,169.546584 L165.521739,141.670807 C167.981366,137.571429 169.621118,132.652174 169.621118,126.913043 C169.621118,111.335404 157.322981,99.0372671 141.745342,99.0372671 C126.167702,99.0372671 113.869565,111.335404 113.869565,126.913043 C113.869565,133.47205 116.329193,139.21118 119.608696,144.130435 L87.6335404,176.10559 C82.7142857,172.826087 76.9751553,170.36646 70.4161491,170.36646 C57.2981366,168.726708 45,181.024845 45,196.602484 C45,212.180124 57.2981366,224.478261 72.8757764,224.478261 C88.4534161,224.478261 100.751553,212.180124 100.751553,196.602484 C100.751553,190.863354 99.1118012,185.124224 95.8322981,181.024845 L127.807453,149.049689 C131.906832,152.329193 137.645963,153.968944 143.385093,153.968944 C149.944099,153.968944 156.503106,151.509317 160.602484,147.409938 L189.298137,176.10559 L189.298137,176.10559 C186.838509,180.204969 185.198758,185.124224 185.198758,190.043478 C185.198758,205.621118 197.496894,217.919255 213.074534,217.919255 C228.652174,217.919255 240.950311,205.621118 240.950311,190.043478 C240.950311,181.84472 237.670807,174.465839 231.931677,169.546584 L268.006211,133.47205 C272.10559,135.111801 276.204969,136.751553 281.124224,136.751553 C296.701863,136.751553 309,124.453416 309,108.875776 C307.360248,93.2981366 295.062112,81 279.484472,81 L279.484472,81 Z" fill="#FFFFFF" opacity="0.1" mask="url(#mask-3)"></path>
                    </g>
                </g>
            </g>
        </g>
    </g>
</svg>