<?xml version="1.0" encoding="UTF-8"?>
<svg width="12px" height="11px" viewBox="0 0 12 11" version="1.1" xmlns="http://www.w3.org/2000/svg" xmlns:xlink="http://www.w3.org/1999/xlink">
    <!-- Generator: Sketch 41.2 (35397) - http://www.bohemiancoding.com/sketch -->
    <title>ic_img</title>
    <desc>Created with Sketch.</desc>
    <defs></defs>
    <g id="mockup" stroke="none" stroke-width="1" fill="none" fill-rule="evenodd">
        <g id="社区首页" transform="translate(-1198.000000, -467.000000)" fill="#9B9B9B">
            <g id="sidebar_right" transform="translate(1040.000000, 170.000000)">
                <g id="tweet" transform="translate(0.000000, 158.000000)">
                    <g id="Group-4" transform="translate(0.000000, 109.000000)">
                        <g id="item">
                            <g id="ic_img" transform="translate(158.000000, 30.000000)">
                                <g id="Group">
                                    <path d="M10.6081731,11 L1.38461538,11 C0.620192308,11 0,10.3783654 0,9.61538462 L0,1.38605769 C0,0.621634615 0.621634615,0.00144230769 1.38461538,0.00144230769 L10.6153846,0.00144230769 C11.3798077,0.00144230769 12,0.623076923 12,1.38605769 L11.9985577,9.60961538 C11.9985577,10.3769231 11.3754808,11 10.6081731,11 Z M0.923076923,1.38461538 L0.923076923,9.61538462 C0.923076923,9.87067308 1.13076923,10.0769231 1.38461538,10.0769231 L10.6081731,10.0769231 C10.8663462,10.0769231 11.0754808,9.86778846 11.0754808,9.60961538 L11.0769231,1.38605769 C11.0769231,1.13076923 10.8692308,0.924519231 10.6153846,0.924519231 L1.38461538,0.924519231 C1.12932692,0.923076923 0.923076923,1.13076923 0.923076923,1.38461538 Z" id="Shape"></path>
                                    <path d="M0.461538462,9.23076923 C0.343269231,9.23076923 0.225,9.18605769 0.135576923,9.09519231 C-0.0447115385,8.91490385 -0.0447115385,8.62211538 0.135576923,8.44182692 L2.43461538,6.14423077 C2.85576923,5.72307692 3.49759615,5.61778846 4.03125,5.88461538 L6.53509615,7.13653846 C6.7125,7.22596154 6.92596154,7.19134615 7.06586538,7.05 L11.2110577,2.90480769 C11.3913462,2.72451923 11.6841346,2.72451923 11.8644231,2.90480769 C12.0447115,3.08509615 12.0447115,3.37788462 11.8644231,3.55817308 L7.71923077,7.70336538 C7.29807692,8.12451923 6.65625,8.22980769 6.12259615,7.96298077 L3.61875,6.71105769 C3.44134615,6.62163462 3.22788462,6.65625 3.08798077,6.79759615 L0.7875,9.09519231 C0.698076923,9.18605769 0.579807692,9.23076923 0.461538462,9.23076923 Z" id="Shape"></path>
                                    <path d="M4.15384615,4.61538462 C3.39086538,4.61538462 2.76923077,3.99375 2.76923077,3.23076923 C2.76923077,2.46778846 3.39086538,1.84615385 4.15384615,1.84615385 C4.91682692,1.84615385 5.53846154,2.46778846 5.53846154,3.23076923 C5.53846154,3.99375 4.91682692,4.61538462 4.15384615,4.61538462 Z M4.15384615,2.76923077 C3.9,2.76923077 3.69230769,2.97692308 3.69230769,3.23076923 C3.69230769,3.48461538 3.9,3.69230769 4.15384615,3.69230769 C4.40769231,3.69230769 4.61538462,3.48461538 4.61538462,3.23076923 C4.61538462,2.97692308 4.40769231,2.76923077 4.15384615,2.76923077 Z" id="Shape"></path>
                                </g>
                            </g>
                        </g>
                    </g>
                </g>
            </g>
        </g>
    </g>
</svg>